<?xml version="1.0" encoding="utf-8"?>
<!-- Generator: Adobe Illustrator 22.0.1, SVG Export Plug-In . SVG Version: 6.00 Build 0)  -->
<svg version="1.1" id="Capa_1" xmlns="http://www.w3.org/2000/svg" xmlns:xlink="http://www.w3.org/1999/xlink" x="0px" y="0px"
	 viewBox="0 0 800 800" style="enable-background:new 0 0 800 800;" xml:space="preserve">
<style type="text/css">
	.st0{fill:#7BD3C8;}
	.st1{fill:url(#SVGID_1_);}
	.st2{fill:url(#SVGID_2_);}
	.st3{fill:url(#SVGID_3_);}
</style>
<g>
	<g>
		<path class="st0" d="M83.4,478.9c-5.6-9-14.6-10.3-23.2-10.4c-9,0-23.2,3.3-23.2,15.6c0,9.8,10.5,12.1,23.5,14.5
			c14.8,2.9,30.1,5.5,30.1,22C90.4,537.9,72.9,542,60.1,542c-12,0-25.5-4.9-31.5-16.7l5.3-2.6c4.7,9.3,16.8,13.9,26.2,13.9
			c9.4,0,24.4-2.6,24.4-16.2c0.1-11.5-12.6-14-25.2-16.4c-14-2.7-28.4-5.6-28.4-19.7C30.6,468,47.5,463,60.1,463
			c11,0,20.5,1.8,28.1,13L83.4,478.9z"/>
		<path class="st0" d="M171,469.5h-27.7v-5.3h61.4v5.3h-27.7v71.4H171V469.5z"/>
		<path class="st0" d="M323,540.8l-8.4-18.9h-45.8l-8.3,18.9h-6.4l34.4-76.7h6.5l34.4,76.7H323z M312.3,516.5l-20.6-46.7l-20.6,46.7
			H312.3z"/>
		<path class="st0" d="M406,469.5h-27.7v-5.3h61.4v5.3h-27.7v71.4H406V469.5z"/>
		<path class="st0" d="M502.9,464.1v71.2h43.2v5.6H497v-76.7H502.9z"/>
		<path class="st0" d="M664.5,540.8l-8.4-18.9h-45.8l-8.3,18.9h-6.4l34.4-76.7h6.5l34.4,76.7H664.5z M653.8,516.5l-20.6-46.7
			l-20.6,46.7H653.8z"/>
		<path class="st0" d="M747.5,469.5h-27.7v-5.3h61.4v5.3h-27.7v71.4h-5.9V469.5z"/>
	</g>
</g>
<g>
	<linearGradient id="SVGID_1_" gradientUnits="userSpaceOnUse" x1="145.3089" y1="442.522" x2="186.2576" y2="333.8308">
		<stop  offset="0" style="stop-color:#477EC0"/>
		<stop  offset="0.271" style="stop-color:#3791C2"/>
		<stop  offset="0.8171" style="stop-color:#0FC1C6"/>
		<stop  offset="0.9976" style="stop-color:#00D3C8"/>
	</linearGradient>
	<path class="st1" d="M128.9,398c0,0,72.2-149.3,130.5-132.4c0,0-48.2-49.7-99.4,23C160,288.7,130.1,329.9,128.9,398z"/>
	<linearGradient id="SVGID_2_" gradientUnits="userSpaceOnUse" x1="513.3284" y1="295.9188" x2="582.0819" y2="208.9659">
		<stop  offset="0" style="stop-color:#477EC0"/>
		<stop  offset="0.271" style="stop-color:#3791C2"/>
		<stop  offset="0.8171" style="stop-color:#0FC1C6"/>
		<stop  offset="0.9976" style="stop-color:#00D3C8"/>
	</linearGradient>
	<path class="st2" d="M501.6,271.9c0,0,109.5-130,163-98.5c0,0-35.2-61.6-104.4-2.3C560.2,171.1,520.1,204.5,501.6,271.9z"/>
	<linearGradient id="SVGID_3_" gradientUnits="userSpaceOnUse" x1="334.0858" y1="217.6435" x2="410.2538" y2="324.144">
		<stop  offset="0" style="stop-color:#477EC0"/>
		<stop  offset="0.271" style="stop-color:#3791C2"/>
		<stop  offset="0.8171" style="stop-color:#0FC1C6"/>
		<stop  offset="0.9976" style="stop-color:#00D3C8"/>
	</linearGradient>
	<path class="st3" d="M261.9,266.1c0,0,7.6,2.6,15.1,16.9c7.6,14.3,20.8,40.3,31.3,56.8c10.5,16.5,31.1,57.3,73.3,60.8
		s67.3-41.2,67.3-41.2s20.4-33,29.3-51.4l15.8-27.3c0,0-37.8,67.7-105.3,73.1c0,0-52.2,9.3-97.3-58.8
		C291.4,295,275.9,271.5,261.9,266.1z"/>
</g>
</svg>
